<?xml version="1.0" encoding="UTF-8"?>
<svg width="50px" height="50px" viewBox="0 0 50 50" version="1.1" xmlns="http://www.w3.org/2000/svg" xmlns:xlink="http://www.w3.org/1999/xlink">
    <!-- Generator: Sketch 3.8.1 (29687) - http://www.bohemiancoding.com/sketch -->
    <title>Group 2</title>
    <desc>Created with Sketch.</desc>
    <defs></defs>
    <g id="Page-1" stroke="none" stroke-width="1" fill="none" fill-rule="evenodd">
        <g id="Group-2">
            <circle id="Oval-1-Copy-3" fill="#FFFFFF" cx="25" cy="25" r="25"></circle>
            <g id="Behance-color" transform="translate(9.333333, 15.333333)" fill="#1769FF">
                <g id="Icons">
                    <g>
                        <g id="Color-">
                            <path d="M20.0218486,3.26782644 L28.3194564,3.26782644 L28.3194564,0.890564486 L20.0218486,0.890564486 L20.0218486,3.26782644 L20.0218486,3.26782644 L20.0218486,3.26782644 Z M21.9875563,8.45491094 C21.4588233,8.99288469 21.1253713,9.72169346 20.9890426,10.6413379 L27.4425336,10.6413379 C27.3743693,9.65989956 27.0390752,8.91836815 26.4458621,8.40765636 C25.8452804,7.90057989 25.1065279,7.64795032 24.2222359,7.64795032 C23.2642526,7.64795032 22.5162893,7.91693719 21.9875563,8.45491094 L21.9875563,8.45491094 L21.9875563,8.45491094 L21.9875563,8.45491094 Z M27.5880731,5.26341837 C28.5884289,5.70324829 29.4119257,6.40115978 30.0604069,7.35351882 C30.6517772,8.19319406 31.0312859,9.1673624 31.2044593,10.2742072 C31.3057848,10.9212294 31.3463145,11.8590485 31.3297346,13.0785771 L20.8969292,13.0785771 C20.9595664,14.4943927 21.4532962,15.4885536 22.3965412,16.0574247 C22.9676467,16.4118327 23.6548154,16.5899458 24.4617316,16.5899458 C25.311021,16.5899458 26.0055583,16.3736661 26.5379762,15.9429235 C26.8308978,15.7084686 27.0888162,15.3849572 27.3098892,14.9705725 L31.1326107,14.9705725 C31.0312859,15.8066124 30.5670323,16.6590103 29.7453776,17.5241302 C28.4631537,18.8963265 26.6669357,19.5833333 24.3585647,19.5833333 C22.4518093,19.5833333 20.7698118,19.005375 19.3162571,17.8458236 C17.8553326,16.6880896 17.1294757,14.8015468 17.1294757,12.1916473 C17.1294757,9.74350342 17.7871683,7.86604794 19.1007106,6.55928083 C20.4179378,5.25614839 22.1220423,4.60003883 24.2203938,4.60003883 C25.4676139,4.60003883 26.58956,4.82177112 27.5880731,5.26341837 L27.5880731,5.26341837 L27.5880731,5.26341837 L27.5880731,5.26341837 Z M3.85956689,10.6922271 L3.85956689,15.7866205 L8.56105326,15.7866205 C9.40113126,15.7866205 10.056981,15.6739367 10.5230767,15.4503864 C11.3723654,15.0323664 11.7960887,14.2399458 11.7960887,13.0658544 C11.7960887,12.0698761 11.3871039,11.3883219 10.5636064,11.0157386 C10.1030377,10.8085463 9.45639935,10.6994971 8.62737549,10.6922271 L3.85956689,10.6922271 L3.85956689,10.6922271 L3.85956689,10.6922271 Z M3.85956689,3.31689836 L3.85956689,7.53163185 L8.56842247,7.53163185 C9.40665768,7.53163185 10.0901421,7.37351144 10.617033,7.05726999 C11.140239,6.74102853 11.4036844,6.18124547 11.4036844,5.38155483 C11.4036844,4.48917236 11.0573368,3.90212669 10.3646411,3.61496518 C9.76405939,3.41686018 9.0013571,3.31689836 8.07469269,3.31689836 L3.85956689,3.31689836 L3.85956689,3.31689836 L3.85956689,3.31689836 Z M14.3752744,2.03557587 C14.9666448,2.84798915 15.2632513,3.81852283 15.2632513,4.95081224 C15.2632513,6.11581625 14.9666448,7.05545265 14.3679052,7.76426944 C14.0326111,8.16047944 13.5407235,8.52397549 12.8904002,8.8511216 C13.8778604,9.207347 14.6221393,9.76894804 15.1287647,10.5377414 C15.6298637,11.3047174 15.8822557,12.2389018 15.8822557,13.3366586 C15.8822557,14.468948 15.5948605,15.484919 15.0182286,16.3827534 C14.6534583,16.9770691 14.1965739,17.4786929 13.6475754,17.8858082 C13.0304132,18.3529001 12.3027148,18.6709589 11.4607946,18.8454372 C10.6188752,19.0180976 9.70879131,19.1017015 8.72501603,19.1017015 L0,19.1017015 L0,0 L9.35691667,0 C11.7187137,0.0345319444 13.389657,0.712451458 14.3752744,2.03557587 L14.3752744,2.03557587 L14.3752744,2.03557587 L14.3752744,2.03557587 Z" id="Behance"></path>
                        </g>
                    </g>
                </g>
            </g>
        </g>
    </g>
</svg>