<?xml version="1.0" encoding="UTF-8"?>
<svg width="50px" height="50px" viewBox="0 0 50 50" version="1.1" xmlns="http://www.w3.org/2000/svg" xmlns:xlink="http://www.w3.org/1999/xlink">
    <!-- Generator: Sketch 3.8.1 (29687) - http://www.bohemiancoding.com/sketch -->
    <title>Group 3</title>
    <desc>Created with Sketch.</desc>
    <defs></defs>
    <g id="Page-1" stroke="none" stroke-width="1" fill="none" fill-rule="evenodd">
        <g id="Group-3">
            <circle id="Oval-1-Copy-4" fill="#FFFFFF" cx="25" cy="25" r="25"></circle>
            <g id="LinkedIn-color" transform="translate(12.000000, 11.333333)" fill="#007EBB">
                <g id="Icons">
                    <g>
                        <g id="Color-">
                            <path d="M26.6666667,24.2424242 L20.7729697,24.2424242 L20.7729697,15.7202424 C20.7729697,13.4895733 19.8510503,11.9667576 17.8237691,11.9667576 C16.2731267,11.9667576 15.4107873,12.9943867 15.0094073,13.98476 C14.8588897,14.3402394 14.8824085,14.8354261 14.8824085,15.3306127 L14.8824085,24.2424242 L9.04358727,24.2424242 C9.04358727,24.2424242 9.11884606,9.1462103 9.04358727,7.77396788 L14.8824085,7.77396788 L14.8824085,10.3585642 C15.2273442,9.22848242 17.0931327,7.61563273 20.0705552,7.61563273 C23.764503,7.61563273 26.6666667,9.98445758 26.6666667,15.0853479 L26.6666667,24.2424242 L26.6666667,24.2424242 L26.6666667,24.2424242 Z M3.13891515,5.71405273 L3.10128545,5.71405273 C1.21981818,5.71405273 0,4.4551297 0,2.85935515 C0,1.23253394 1.25587939,0 3.17497636,0 C5.09250545,0 6.27155818,1.2294297 6.30918788,2.85469818 C6.30918788,4.45047273 5.09250545,5.71405273 3.13891515,5.71405273 L3.13891515,5.71405273 L3.13891515,5.71405273 L3.13891515,5.71405273 Z M0.672624848,7.77396788 L5.87017879,7.77396788 L5.87017879,24.2424242 L0.672624848,24.2424242 L0.672624848,7.77396788 L0.672624848,7.77396788 L0.672624848,7.77396788 Z" id="LinkedIn"></path>
                        </g>
                    </g>
                </g>
            </g>
        </g>
    </g>
</svg>