<?xml version="1.0" encoding="UTF-8"?>
<svg width="50px" height="50px" viewBox="0 0 50 50" version="1.1" xmlns="http://www.w3.org/2000/svg" xmlns:xlink="http://www.w3.org/1999/xlink">
    <!-- Generator: Sketch 3.8.1 (29687) - http://www.bohemiancoding.com/sketch -->
    <title>Group 5</title>
    <desc>Created with Sketch.</desc>
    <defs></defs>
    <g id="Page-1" stroke="none" stroke-width="1" fill="none" fill-rule="evenodd">
        <g id="Group-5">
            <circle id="Oval-1-Copy-6" fill="#FFFFFF" cx="25" cy="25" r="25"></circle>
            <g id="Twitter-color" transform="translate(9.333333, 12.000000)" fill="#00AAEC">
                <g id="Icons">
                    <g>
                        <g id="Color-">
                            <path d="M32,3.15685533 C30.824206,3.692308 29.5582553,4.054412 28.230322,4.21620333 C29.5864293,3.384134 30.626988,2.06476467 31.1172153,0.493078 C29.8475087,1.26351267 28.4444447,1.824004 26.9455893,2.12447333 C25.7510127,0.816660667 24.0436693,0 22.1541353,0 C18.530962,0 15.5914773,3.01432533 15.5914773,6.731672 C15.5914773,7.25942 15.6478253,7.77175867 15.7605213,8.26483667 C10.3041613,7.983628 5.46762933,5.306368 2.227622,1.22884333 C1.66226467,2.226556 1.33920267,3.384134 1.33920267,4.61682933 C1.33920267,6.951246 2.49809267,9.01215867 4.25990467,10.2198147 C3.18553733,10.1870713 2.171274,9.88082333 1.28473333,9.38004067 L1.28473333,9.46286267 C1.28473333,12.7256533 3.54804267,15.4472133 6.55326667,16.0635607 C6.00293467,16.2215 5.42255067,16.3004693 4.82338467,16.3004693 C4.40077467,16.3004693 3.98755667,16.260022 3.587486,16.181052 C4.423314,18.85446 6.846276,20.8017333 9.72002133,20.853738 C7.473616,22.6604067 4.64119267,23.7370893 1.56647267,23.7370893 C1.036802,23.7370893 0.512766,23.706272 0,23.6446373 C2.905676,25.5514627 6.35792667,26.6666667 10.0637433,26.6666667 C22.1409873,26.6666667 28.7430887,16.4102567 28.7430887,7.51366333 C28.7430887,7.220898 28.737454,6.92813267 28.726184,6.641146 C30.0090393,5.69158533 31.12285,4.507042 32,3.15685533" id="Twitter"></path>
                        </g>
                    </g>
                </g>
            </g>
        </g>
    </g>
</svg>