<?xml version="1.0" encoding="UTF-8"?>
<svg width="50px" height="50px" viewBox="0 0 50 50" version="1.1" xmlns="http://www.w3.org/2000/svg" xmlns:xlink="http://www.w3.org/1999/xlink">
    <!-- Generator: Sketch 3.8.1 (29687) - http://www.bohemiancoding.com/sketch -->
    <title>Group 4</title>
    <desc>Created with Sketch.</desc>
    <defs></defs>
    <g id="Page-1" stroke="none" stroke-width="1" fill="none" fill-rule="evenodd">
        <g id="Group-4">
            <circle id="Oval-1-Copy-5" fill="#FFFFFF" cx="25" cy="25" r="25"></circle>
            <g id="Youtube-color" transform="translate(9.333333, 14.000000)" fill="#CE1312">
                <g id="Icons">
                    <g>
                        <g id="Color-">
                            <path d="M12.696,15.5132773 L12.695,6.45849467 L21.341,11.001496 L12.696,15.5132773 L12.696,15.5132773 Z M31.68,4.889442 C31.68,4.889442 31.367,2.66879933 30.408,1.69091067 C29.191,0.406866 27.827,0.400823333 27.202,0.326298667 C22.724,0 16.007,0 16.007,0 L15.993,0 C15.993,0 9.276,0 4.798,0.326298667 C4.172,0.400823333 2.809,0.406866 1.591,1.69091067 C0.632,2.66879933 0.32,4.889442 0.32,4.889442 C0.32,4.889442 0,7.49781533 0,10.105182 L0,12.5504067 C0,15.15878 0.32,17.7661467 0.32,17.7661467 C0.32,17.7661467 0.632,19.9867893 1.591,20.9646773 C2.809,22.2487227 4.408,22.2084387 5.12,22.3423827 C7.68,22.5901273 16,22.6666667 16,22.6666667 C16,22.6666667 22.724,22.656596 27.202,22.3302973 C27.827,22.2547653 29.191,22.2487227 30.408,20.9646773 C31.367,19.9867893 31.68,17.7661467 31.68,17.7661467 C31.68,17.7661467 32,15.15878 32,12.5504067 L32,10.105182 C32,7.49781533 31.68,4.889442 31.68,4.889442 L31.68,4.889442 L31.68,4.889442 Z" id="Youtube"></path>
                        </g>
                    </g>
                </g>
            </g>
        </g>
    </g>
</svg>